HIERARCHY
ROOT simHips
{
  OFFSET -187.374 99.3613 -7.87192
  CHANNELS 6 Xposition Yposition Zposition Zrotation Xrotation Yrotation
  JOINT simSpine
  {
    OFFSET -0.000355721 21.3001 -0.016921
    CHANNELS 3 Zrotation Xrotation Yrotation
    JOINT simLeftArm
    {
      OFFSET 13.5181 21.3012 0
      CHANNELS 3 Zrotation Xrotation Yrotation
      JOINT simLeftForeArm
      {
        OFFSET 24.5783 0 0
        CHANNELS 3 Zrotation Xrotation Yrotation
        JOINT simLeftHand
        {
          OFFSET 24.5783 0 0
          CHANNELS 3 Zrotation Xrotation Yrotation
          End Site
          {
            OFFSET 7.32568 1.52588e-05 0.0169305
          }
        }
      }
    }
    JOINT simHead
    {
      OFFSET 0 27.4458 -0.00489235
      CHANNELS 3 Zrotation Xrotation Yrotation
      End Site
      {
        OFFSET 0 0 0
      }
    }
    JOINT simRightArm
    {
      OFFSET -13.5174 21.3012 0
      CHANNELS 3 Zrotation Xrotation Yrotation
      JOINT simRightForeArm
      {
        OFFSET -24.5783 0 0
        CHANNELS 3 Zrotation Xrotation Yrotation
        JOINT simRightHand
        {
          OFFSET -24.5783 0 0
          CHANNELS 3 Zrotation Xrotation Yrotation
          End Site
          {
            OFFSET -7.32568 1.52588e-05 0.0169305
          }
        }
      }
    }
  }
  JOINT simRightUpLeg
  {
    OFFSET -8.44614 -9.41038 0.835684
    CHANNELS 3 Zrotation Xrotation Yrotation
    JOINT simRightLeg
    {
      OFFSET 0 -40.9639 0
      CHANNELS 3 Zrotation Xrotation Yrotation
      JOINT simRightFoot
      {
        OFFSET 0 -40.9639 0
        CHANNELS 3 Zrotation Xrotation Yrotation
        End Site
        {
          OFFSET 0.50614 -9.67405 14.6709
        }
      }
    }
  }
  JOINT simLeftUpLeg
  {
    OFFSET 8.44614 -9.41038 0.835684
    CHANNELS 3 Zrotation Xrotation Yrotation
    JOINT simLeftLeg
    {
      OFFSET 0 -40.9639 0
      CHANNELS 3 Zrotation Xrotation Yrotation
      JOINT simLeftFoot
      {
        OFFSET 0 -40.9639 0
        CHANNELS 3 Zrotation Xrotation Yrotation
        End Site
        {
          OFFSET -0.50614 -9.67405 14.6709
        }
      }
    }
  }
}
MOTION
Frames:	27
Frame Time:	0.0333333
-187.374 99.3613 -7.87192 -6.86997 7.92694 90.2265 -11.2321 -8.82988 0.310795 -82.3691 6.32783 11.5927 -0.00585389 -0.00622993 -24.7985 -6.07785 -9.39351 17.1075 -0.687193 15.9837 1.51534 82.7432 8.3022 -10.8217 -0.00324007 0.000867403 39.8083 -2.44769 9.04806 6.55452 -18.3571 -1.67455 -14.7538 0.0172358 5.87903 0.210677 14.4813 -10.4893 11.1668 -3.70559 -2.17834 -3.85721 2.60536e-05 6.98565 0.459647 -43.5134 -14.8518 5.66511 
-186.996 99.3256 -8.69889 -6.98783 8.11364 90.4851 -11.4938 -8.64602 0.189928 -81.5352 6.24571 11.383 -0.00594414 -0.00618743 -25.6312 -3.07279 -7.41109 15.2268 -0.866284 15.9367 1.42008 83.4681 12.6827 -11.3363 -0.00328139 0.000831233 42.5949 -3.41723 6.65487 6.83562 -19.4904 -3.10448 -15.0635 0.00824841 9.31892 0.188765 13.9406 -12.0897 11.3382 -4.50721 -1.93785 -4.59898 -1.91915e-05 6.79558 0.409759 -43.014 -15.3765 5.88327 
-186.663 99.2457 -9.55185 -7.12365 8.64346 90.4134 -11.7708 -8.3694 0.16217 -79.7044 9.52626 10.9496 -0.00605891 -0.00613104 -26.6989 -4.31135 -7.43702 15.2059 -1.38065 15.4528 1.58023 82.6224 12.6268 -11.6136 -0.00331664 0.000797381 45.0752 -4.28208 8.10178 7.7201 -21.1286 -5.78288 -13.9348 -2.15759e-05 14.8405 0.151629 12.6461 -14.6295 10.3302 -5.67361 -1.68267 -4.86597 -6.35332e-05 6.51664 0.346862 -42.4919 -15.8337 6.0015 
-186.267 99.1425 -10.2485 -7.03848 9.14777 90.0942 -12.1365 -8.06239 0.0588121 -77.121 12.4328 10.409 -0.00613281 -0.00609332 -27.3916 -8.36719 -6.65101 16.2619 -1.87186 15.3757 2.05385 80.9451 12.6903 -11.4392 -0.00333664 0.000776817 46.5307 -4.14218 6.39564 8.57943 -22.4047 -9.15212 -12.2865 -1.56098e-05 21.7905 0.102209 9.77178 -16.9883 8.30439 -6.57485 -1.08741 -3.26103 1.30972e-05 6.08932 0.275822 -42.5458 -15.1906 4.79131 
-185.737 99.1504 -10.7673 -6.68011 9.16948 89.8545 -12.2664 -7.73772 -0.140178 -74.1701 16.4835 9.69473 -0.00607505 -0.0061229 -26.8498 -8.95128 -5.88591 16.413 -1.92417 15.7235 2.2543 79.0747 13.1284 -11.1877 -0.00334724 0.000765484 47.3179 -4.35325 4.68896 8.45219 -22.7871 -12.2568 -11.6152 -0.000759807 28.6704 0.080271 8.99775 -18.2992 6.49642 -6.92977 -0.0855047 -2.78623 -4.29682e-05 5.6085 0.207936 -42.2028 -15.2058 4.58017 
-185.041 99.2551 -11.1902 -6.37375 8.85947 89.7791 -12.2143 -7.50995 -0.374617 -71.3297 19.503 8.41308 -0.00588532 -0.00621531 -25.0879 -6.35504 -4.04329 16.3241 -1.86262 16.3254 2.28154 77.2233 13.3723 -11.0181 -0.00335303 0.000759157 47.7531 -5.12946 5.83968 8.40563 -22.7081 -15.2314 -12.2165 -0.00206576 34.676 0.0702149 9.01945 -19.0371 6.53017 -6.93587 0.965841 -3.12189 -3.85533e-05 5.09368 0.150129 -41.4396 -15.5227 5.15901 
-184.214 99.4016 -11.4751 -6.56152 7.71124 89.5807 -11.7403 -7.44242 -0.502872 -68.2325 20.4481 6.29348 -0.00564563 -0.00632199 -22.8973 -3.29184 -1.1078 16.9108 -1.35798 16.6715 2.26906 75.7657 12.5986 -10.7513 -0.00335533 0.000756617 47.927 -5.86592 7.08255 8.32586 -21.124 -18.4854 -11.9924 -0.00213874 38.4651 0.0649 9.05974 -18.4821 6.6858 -5.82896 1.41206 -2.18251 -0.000127574 4.8696 0.134163 -41.5655 -15.1449 4.43604 
-183.315 99.4976 -11.6722 -7.03682 6.57292 89.5771 -11.355 -7.44146 -0.747857 -65.5094 19.7973 4.20606 -0.00549139 -0.00638494 -21.5065 -1.08338 0.676751 17.5807 -0.273034 16.5212 2.03713 74.4692 10.7531 -10.5289 -0.00335178 0.000760526 47.6592 -6.38949 6.7406 8.19114 -19.2638 -21.4341 -12.0367 -0.00135014 39.5862 0.0628752 9.00701 -17.2985 6.70482 -4.65248 1.46634 -1.1513 -0.000932133 4.89409 0.143828 -41.6813 -14.6417 3.43293 
-182.345 99.4826 -11.822 -7.29683 6.03173 89.4668 -11.2721 -7.31914 -0.945479 -63.5758 18.1925 2.5375 -0.00544071 -0.00640468 -21.0524 -0.799241 -0.0102604 17.6486 0.630815 15.9668 1.9087 73.0666 8.85855 -10.7379 -0.00334951 0.000763014 47.4882 -6.76654 5.73358 8.19548 -17.9139 -23.6791 -11.8917 -0.00418912 38.6561 0.0695455 9.69635 -16.8889 6.79135 -4.11719 1.81585 0.0343044 -0.00105352 4.95327 0.158151 -41.7331 -14.2875 2.33589 
-181.243 99.3915 -11.8931 -7.62206 5.55425 89.0448 -11.1792 -7.31045 -0.925424 -62.1999 16.1164 1.13047 -0.00548064 -0.00638917 -21.41 -1.9549 -2.33651 17.3545 1.32888 15.2033 1.92637 71.8349 7.34496 -11.291 -0.00335178 0.00076053 47.659 -7.2688 5.10546 7.80706 -16.2626 -25.7601 -10.9327 -0.00495178 36.2393 0.0756243 10.0673 -16.1695 6.2456 -3.64414 2.24353 0.706598 -5.72992e-06 4.92275 0.164745 -41.8242 -14.5263 1.78016 
-180.044 99.2662 -11.9019 -8.07789 4.86264 88.9181 -10.9003 -7.35991 -0.972496 -61.2347 14.7105 -0.318569 -0.0055688 -0.00635389 -22.2028 -2.95975 -4.99051 16.7709 1.9814 14.4133 1.76202 70.8357 6.08715 -12.0368 -0.00335279 0.000759417 47.7354 -7.49484 4.8445 7.71581 -14.446 -27.6362 -10.1591 -0.00275362 32.8057 0.0791671 9.87727 -13.5004 5.33077 -2.86048 2.52735 0.978256 -3.23168e-05 5.05188 0.189262 -42.2296 -14.9237 1.08607 
-178.659 99.1131 -11.8683 -8.62674 4.23715 89.0844 -10.6234 -7.47341 -1.09089 -60.7435 14.0541 -1.88335 -0.00567709 -0.00630861 -23.1828 -3.30876 -6.97073 16.1737 2.49173 13.9456 1.41462 69.9457 5.24648 -12.9362 -0.00335327 0.000758884 47.7719 -7.26143 4.76994 7.54523 -12.9973 -29.0224 -9.78909 -0.00589921 28.7326 0.0961464 11.3178 -11.4124 4.86624 -2.11546 2.81708 1.20276 -0.00107145 5.17822 0.214148 -42.4567 -15.1414 0.301288 
-177.117 98.9138 -11.7959 -9.11727 3.84411 89.3974 -10.4003 -7.45723 -1.24143 -60.8088 13.7612 -3.44284 -0.00578974 -0.00625917 -24.2098 -3.30183 -7.30269 15.7318 2.77319 13.6621 1.02029 69.0632 5.00332 -13.7639 -0.00335313 0.000759044 47.7609 -6.90033 4.69267 7.24199 -11.9137 -30.0594 -9.61036 -0.00248827 24.7832 0.101874 11.1213 -11.4964 4.7752 -1.61207 3.27831 1.45698 -0.00201107 5.25114 0.233254 -42.5648 -15.2518 -0.534014 
-175.393 98.6795 -11.6633 -9.53228 3.47368 89.6005 -10.1429 -7.47159 -1.32487 -61.225 13.7962 -4.72162 -0.00590495 -0.00620608 -25.2689 -3.72862 -7.66061 15.829 2.98814 13.4381 0.81312 68.2938 5.41459 -14.6744 -0.00335566 0.000756251 47.952 -6.24072 5.1276 7.2264 -10.9099 -31.0053 -9.17136 -0.000189351 21.3138 0.109856 11.2805 -10.6305 4.22053 -1.11149 3.96773 1.63969 -0.0021383 5.28064 0.245273 -42.5498 -15.5016 -1.17396 
-173.486 98.3944 -11.5046 -9.8805 3.36751 89.7722 -9.97618 -7.4363 -1.43465 -61.924 14.1967 -5.57354 -0.00603867 -0.00614118 -26.5099 -4.4398 -7.75918 15.6557 3.10167 13.2477 0.801968 67.5803 5.85061 -15.4322 -0.00335859 0.000752988 48.1746 -6.05987 5.03026 7.02689 -10.4076 -31.9908 -9.03853 -0.0002113 18.944 0.117178 11.4977 -9.19191 3.28328 -0.924918 4.86415 1.44251 -0.000997986 5.27378 0.251434 -42.1892 -15.99 -1.32476 
-171.378 98.0566 -11.2789 -10.2239 3.2446 90.0727 -9.7665 -7.44833 -1.56074 -62.7045 15.3475 -6.15917 -0.00616735 -0.00607529 -27.7169 -4.88536 -8.14128 15.5553 3.28515 13.0683 0.781307 66.9372 6.12319 -16.284 -0.00336631 0.00074427 48.7655 -5.55146 5.10224 6.77814 -10.0978 -32.8785 -9.18095 -0.000780746 17.789 0.118225 11.1895 -9.76493 2.74323 -0.634798 5.85038 1.26322 -0.000333697 5.36048 0.270419 -42.2508 -16.3238 -1.70346 
-168.997 97.7276 -10.9776 -10.5769 3.10713 90.4921 -9.55072 -7.61239 -1.70989 -63.6281 16.7624 -6.48206 -0.00625346 -0.00602927 -28.532 -5.10222 -7.92739 15.2976 3.62604 13.1068 0.518107 66.4491 6.24117 -17.25 -0.00337875 0.000729834 49.7325 -5.3313 4.98858 6.56481 -9.89469 -33.4665 -9.24995 0.000334579 17.1824 0.117553 10.7736 -9.97736 2.48559 -0.193286 6.77454 0.719471 0.00108931 5.64226 0.298292 -42.7223 -16.2351 -1.80098 
-166.341 97.4234 -10.5992 -10.8499 2.99976 90.9448 -9.32437 -7.84172 -1.91133 -64.6643 18.3335 -6.33725 -0.00631378 -0.00599608 -29.1069 -5.13481 -7.42667 15.1304 4.07149 13.3562 0.218148 66.1189 6.25622 -18.0539 -0.00339011 0.000716202 50.6331 -5.37353 4.46954 6.57299 -9.87405 -33.5661 -9.44588 9.93902e-05 17.1765 0.135601 12.4807 -9.34103 2.33483 0.369856 8.10032 0.0956061 -0.000597228 5.8441 0.365028 -43.4195 -15.549 -1.83166 
-163.363 97.1348 -10.1125 -10.9543 2.60389 91.6402 -8.934 -8.11649 -2.18402 -65.8167 19.901 -5.66066 -0.00634548 -0.00597832 -29.4102 -5.24737 -6.74898 15.2833 4.66556 14.0393 -0.353922 66.1096 6.064 -18.8394 -0.00339972 0.000704328 51.4082 -5.23924 4.18823 6.80566 -9.61626 -33.0982 -9.33324 -0.000327391 18.7539 0.153431 14.9956 -8.37363 2.26855 1.41273 9.18834 -0.828722 4.02553e-06 6.73412 0.515039 -44.2602 -14.3208 -1.66127 
-160.105 96.8646 -9.50927 -10.9347 1.86692 92.3779 -8.33916 -8.52137 -2.405 -66.9501 21.4233 -4.33969 -0.00636156 -0.00596923 -29.5644 -4.5979 -5.65744 15.1066 5.40765 14.9542 -1.04013 66.4962 6.03943 -19.6654 -0.00341139 0.000689458 52.3672 -5.49881 3.85216 6.69065 -8.75613 -31.9448 -9.10328 0.000220676 20.4893 0.165522 17.2365 -7.33109 2.32915 3.04202 10.4351 -1.5632 3.55437e-06 7.70124 0.839464 -45.7295 -11.7235 -1.32982 
-156.793 96.8491 -8.7983 -10.9708 0.493948 92.0541 -7.32655 -8.80134 -2.15514 -67.6001 21.7781 -2.88309 -0.00637065 -0.00596406 -29.6517 -5.22911 -5.16381 15.3597 6.49086 15.9186 -1.09035 67.4275 6.62293 -19.4463 -0.00341702 0.000682092 52.8377 -5.91712 3.32758 6.73035 -6.04959 -31.4041 -7.54972 0.00174184 22.9674 0.132687 13.6911 -8.32742 2.24691 5.29134 8.52511 -0.987407 -2.5823e-05 14.5396 0.740959 -47.579 -9.32697 -1.40766 
-153.597 97.0691 -8.11701 -10.7148 -0.0328634 91.3226 -6.82374 -8.87359 -1.82639 -68.7722 21.0813 -1.13348 -0.00625846 -0.00602655 -28.5796 -4.6665 -4.55745 14.4561 7.34655 16.8784 -0.684242 68.3937 7.44281 -18.3169 -0.00341056 0.000690532 52.2984 -5.52733 3.95416 6.97221 -4.17939 -30.3439 -5.78412 6.53182e-05 25.3416 0.10879 10.864 -10.6312 1.99585 6.61252 4.6078 0.349066 -9.39426e-06 24.8306 0.609392 -48.4903 -4.66578 0.747586 
-150.639 97.2886 -7.4501 -10.1513 -0.34925 90.803 -6.43991 -8.54897 -1.56252 -70.1704 19.1707 0.775493 -0.00609793 -0.00611127 -27.0641 -4.47673 -4.49501 14.5496 8.0558 18.0442 -0.494994 69.4034 8.49885 -16.7452 -0.00340536 0.000697198 51.8696 -5.36553 4.85264 6.63969 -2.88277 -27.9654 -5.20469 -0.000589732 25.8858 0.108906 9.84701 -12.9223 2.3369 7.73288 -0.917552 0.726446 -1.19307e-05 37.4373 0.570427 -50.7739 0.412237 5.72394 
-147.907 97.545 -6.913 -9.38997 -0.526415 91.0322 -6.19587 -7.95349 -1.32765 -71.1162 18.1086 2.41928 -0.00594671 -0.0061862 -25.655 -4.75428 -4.75371 14.891 8.84817 19.2042 -1.04026 70.3748 9.1975 -15.5506 -0.00340874 0.00069288 52.1476 -5.57425 4.79121 6.67342 -2.2778 -24.8469 -5.5662 -7.45969e-05 25.3648 0.109824 9.3977 -14.7316 2.71293 8.19019 -7.5241 0.489393 -2.15004e-05 50.7416 0.490777 -51.3571 1.50939 11.6848 
-145.233 97.9069 -6.41236 -8.79285 -0.393666 90.5173 -6.1487 -7.72461 -0.833971 -71.534 17.8347 4.19167 -0.00583358 -0.00623927 -24.6118 -4.93211 -4.92084 14.8627 9.14498 20.9077 -0.913112 71.3129 10.9583 -13.9438 -0.00341065 0.000690411 52.3061 -6.05901 4.43776 7.30384 -1.71039 -21.949 -5.37948 -0.00074675 24.5562 0.097955 8.01779 -15.8692 2.92754 8.81454 -13.7512 2.59839 -4.46145e-05 60.7659 0.428652 -51.002 2.29145 15.0769 
-142.585 98.3558 -5.94532 -8.22499 0.306971 90.1991 -6.46862 -7.62492 -0.456552 -71.8082 18.4141 6.12735 -0.00578097 -0.0062631 -24.1296 -4.41172 -3.76269 14.8773 8.79209 22.8591 -0.667279 71.975 13.3212 -11.8925 -0.00340902 0.000692514 52.1711 -6.46632 4.33186 7.5416 -1.89441 -18.5974 -5.38205 -0.000524694 22.7624 0.0835084 7.18313 -16.5594 3.05611 8.85597 -19.0912 5.06292 9.62648e-05 66.4138 0.31727 -48.3849 -0.146112 10.3868 
-140.06 98.7487 -5.55863 -7.79001 1.47219 90.3067 -7.03768 -7.2397 -0.251973 -72.1154 19.1578 7.73802 -0.00574565 -0.00627881 -23.8069 -4.29761 -3.59053 14.928 7.86011 24.3214 -0.572428 72.3407 14.9956 -9.73776 -0.00341106 0.000689884 52.3399 -6.11749 4.64965 7.7382 -2.91402 -15.5798 -6.11745 -8.37771e-05 21.2628 0.07132 6.46951 -17.2651 3.55742 8.06691 -23.7355 7.2379 9.52057e-05 67.332 0.230335 -46.9992 -3.02591 7.29012 
